# xmcd
#
# Track frame offsets:
#	150
#	15000
#	32581
#	50591
#	69506
#	85592
#	104929
#	120913
#	135422
#	156857
#	174991
#	193848
#	210105
#
# Disc length: 3038 seconds
#
# Revision: 1
# Processed by: cddbd v1.5.2PL0 Copyright (c) Steve Scherf et al.
# Submitted via: audiograbber 1.83.01
#
DISCID=9b0bdc0d
DTITLE=Lionel Richie - Coming Home
DYEAR=2006
DGENRE=
TTITLE0=I Call It Love
TTITLE1=Sweet Vacation
TTITLE2=Why
TTITLE3=What Are You
TTITLE4=Up All Night
TTITLE5=I'm Coming Home
TTITLE6=All Around the World
TTITLE7=Out of my Head
TTITLE8=Reason to Believe
TTITLE9=Stand Down
TTITLE10=I Love You
TTITLE11=I Apologize
TTITLE12=I'm Missing Her
EXTD=
EXTT0=
EXTT1=
EXTT2=
EXTT3=
EXTT4=
EXTT5=
EXTT6=
EXTT7=
EXTT8=
EXTT9=
EXTT10=
EXTT11=
EXTT12=
PLAYORDER=
